<svg height="64" viewBox="0 0 64 64" width="64" xmlns="http://www.w3.org/2000/svg"><path d="m47.13 13.72c-2.33-4.25-5.08-7.91-11.29-9.2a17.87 17.87 0 0 0 -15.13 4 13.9 13.9 0 0 0 -5.25 10.12 15.4 15.4 0 0 0 2.17 7.92c.83.83 9.08.66 9.71.25s-.13-1.54.71-3.42a5.64 5.64 0 0 1 4.87-3.12c1.71.08 2.38 1 3.13 2.83s-.34 3.5-1.63 4.87a21.92 21.92 0 0 0 -4.91 7.46c-1.51 3.92-1.92 9.09-1.21 10.79s1.91 1.8 3.37 1.92 5.5.29 6.79-.42 1.34-1.45 1.63-4.37a32.55 32.55 0 0 1 2.17-8.13c1.12-3.22 4.25-7.37 5.2-10.22s2-7-.33-11.28zm-.92 6.42a18 18 0 0 1 -.7 3.13s-2.09-6.09-2.75-6.21-.67.5-.59.62 3.25 6.71 3.17 7-.67 2-.75 1.67-2-5.21-2.46-5.21-.92.37-.75.62 2.79 5.05 2.63 5.55-.88 2-.88 1.7a17.83 17.83 0 0 0 -2-4.16c-.33-.13-.87.16-.62.41a26.22 26.22 0 0 1 2.12 4.74c-.12.25-.62 1.12-.75 1s-1.58-3.75-2-3.75-.58.29-.54.41a43.66 43.66 0 0 1 1.87 4.55c-.08.29-.75 2.08-.83 1.91s-1.79-4.66-2.08-4.62-.46.87-.46.87 2.25 4.42 2.21 4.71a30.84 30.84 0 0 0 -1.71 5.13 31.36 31.36 0 0 1 -.67 3.5c0-.13-2.79-5.8-2.91-5.8s-1 .38-.67.88 2.62 5 2.92 5.46.58.75.33 1.21-.54.87-.92.83a2 2 0 0 1 -.71-.25s.59-.25.42-.54a29.48 29.48 0 0 1 -1.75-3.71c-.37-1.17-.37-1.21-.71-1.21s-.62.42-.37 1 2 4.21 2 4.42-1.25.33-1.25.12-1.25-3.12-1.75-3.12-.67.63-.46.8 1.42 2.5 1.08 2.45-1.62.09-2-.41-.79-2-.33-5.25a18.86 18.86 0 0 1 3.62-9.25c2.13-2.67 4.3-4.5 4-7.67s-2.21-5.32-4.58-5.36-5.46.46-6.75 3-.79 4-1.21 4.08-6.16-.13-6.16-.13a11.93 11.93 0 0 1 -1.21-8.5 13 13 0 0 1 6.62-8.5 15.82 15.82 0 0 1 12.46-1.26 12.16 12.16 0 0 1 7.92 7.75c.83 2.47 1.16 3.56.91 5.39zm-3.33-6.14a.86.86 0 0 0 -.37.67c0 .17.08.33 1 1.29s1.79 4.63 2 4.88 0 0 .25-.17-.38-1.87-.92-4-1.62-2.86-1.96-2.67zm-5.54 18.43a.85.85 0 0 0 -.71.67 27.64 27.64 0 0 0 1.79 4c.17.08.38-.08.46-.33s-1.28-4.34-1.54-4.34zm-2.25 2.71a47.28 47.28 0 0 0 2.29 5.29c.21.25.17 0 .38-.41s-1.67-5.32-1.88-5.34a.72.72 0 0 0 -.79.46zm-13.79-21.14c-.38.25-1.21 1.59-1.46 4.21s.33 3.83.62 4 .67.17.84-.41-.59-1.38-.46-2.63a12.79 12.79 0 0 1 1.67-4.67c.75-1.11-.84-.78-1.21-.5zm10.33 36.06c-1.29.25-4.87 1.16-5.17 3.87s.38 5.38 4.34 5.84 7.29-1.13 8-2.09a4.64 4.64 0 0 0 .46-5c-1.09-2.33-4.77-3.18-7.63-2.62zm5.92 5.08c-.5 0-1-2.25-1.5-2.29s-1.17-.21-.71.42 1.75 3.12 1.46 3.25-.67.66-.75.54-1.21-3.17-1.5-3.25-.84.25-.63.54 1.21 3 1.21 3-.37.5-.58.17a25.21 25.21 0 0 0 -1.25-2.52c-.17 0-.71.29-.63.5s1.25 2.5.79 2.5a6.06 6.06 0 0 1 -4.16-.88c-1.75-1.25-.92-4.67 3.29-5.54a5.59 5.59 0 0 1 4 .79c.5.48 1.46 2.73.96 2.77zm-6.55-1.71a2.43 2.43 0 0 0 -1 3 1 1 0 0 0 1.34.71c.37-.12-.13-.41-.3-1.21s.42-1.45.59-2-.42-.66-.63-.5z" fill="#1d1d1b"/></svg>